<mxfile host="65bd71144e">
    <diagram id="8x7YtvDUaOXIo2hc1pxW" name="Page-1">
        <mxGraphModel dx="564" dy="329" grid="1" gridSize="10" guides="1" tooltips="1" connect="1" arrows="1" fold="1" page="1" pageScale="1" pageWidth="850" pageHeight="1100" math="0" shadow="0">
            <root>
                <mxCell id="0"/>
                <mxCell id="1" parent="0"/>
                <mxCell id="5" value="" style="rounded=1;whiteSpace=wrap;html=1;rotation=-90;" parent="1" vertex="1">
                    <mxGeometry x="-30" y="290" width="440" height="270" as="geometry"/>
                </mxCell>
                <mxCell id="22" value="" style="group" vertex="1" connectable="0" parent="1">
                    <mxGeometry x="90" y="440" width="210" height="100" as="geometry"/>
                </mxCell>
                <mxCell id="7" value="" style="rounded=1;whiteSpace=wrap;html=1;direction=south;" parent="22" vertex="1">
                    <mxGeometry width="50" height="50" as="geometry"/>
                </mxCell>
                <mxCell id="12" value="" style="group" vertex="1" connectable="0" parent="22">
                    <mxGeometry x="40" width="90" height="50" as="geometry"/>
                </mxCell>
                <mxCell id="9" value="&lt;ul&gt;&lt;li&gt;Value 1&lt;/li&gt;&lt;li&gt;Value 2&lt;/li&gt;&lt;li&gt;Value 3&lt;/li&gt;&lt;/ul&gt;" style="text;strokeColor=none;fillColor=none;html=1;whiteSpace=wrap;verticalAlign=middle;overflow=hidden;" vertex="1" parent="12">
                    <mxGeometry width="90" height="50" as="geometry"/>
                </mxCell>
                <mxCell id="10" value="&lt;h6&gt;Title&lt;/h6&gt;" style="text;strokeColor=none;fillColor=none;html=1;fontSize=24;fontStyle=1;verticalAlign=middle;align=center;rotation=0;" vertex="1" parent="12">
                    <mxGeometry x="30" width="35" height="10" as="geometry"/>
                </mxCell>
                <mxCell id="11" style="edgeStyle=none;html=1;exitX=0.5;exitY=1;exitDx=0;exitDy=0;entryX=0;entryY=1;entryDx=0;entryDy=0;" edge="1" parent="12" source="10" target="10">
                    <mxGeometry relative="1" as="geometry"/>
                </mxCell>
                <UserObject label="%name% Text" placeholders="1" name="Variable" id="13">
                    <mxCell style="text;html=1;strokeColor=none;fillColor=none;align=center;verticalAlign=middle;whiteSpace=wrap;overflow=hidden;" vertex="1" parent="22">
                        <mxGeometry y="60" width="210" height="40" as="geometry"/>
                    </mxCell>
                </UserObject>
                <mxCell id="23" value="" style="group" vertex="1" connectable="0" parent="1">
                    <mxGeometry x="100" y="320" width="210" height="100" as="geometry"/>
                </mxCell>
                <mxCell id="24" value="" style="rounded=1;whiteSpace=wrap;html=1;direction=south;" vertex="1" parent="23">
                    <mxGeometry width="50" height="50" as="geometry"/>
                </mxCell>
                <mxCell id="25" value="" style="group" vertex="1" connectable="0" parent="23">
                    <mxGeometry x="40" width="90" height="50" as="geometry"/>
                </mxCell>
                <mxCell id="26" value="&lt;ul&gt;&lt;li&gt;Value 1&lt;/li&gt;&lt;li&gt;Value 2&lt;/li&gt;&lt;li&gt;Value 3&lt;/li&gt;&lt;/ul&gt;" style="text;strokeColor=none;fillColor=none;html=1;whiteSpace=wrap;verticalAlign=middle;overflow=hidden;" vertex="1" parent="25">
                    <mxGeometry width="90" height="50" as="geometry"/>
                </mxCell>
                <mxCell id="27" value="&lt;h6&gt;Title&lt;/h6&gt;" style="text;strokeColor=none;fillColor=none;html=1;fontSize=24;fontStyle=1;verticalAlign=middle;align=center;rotation=0;" vertex="1" parent="25">
                    <mxGeometry x="30" width="35" height="10" as="geometry"/>
                </mxCell>
                <mxCell id="28" style="edgeStyle=none;html=1;exitX=0.5;exitY=1;exitDx=0;exitDy=0;entryX=0;entryY=1;entryDx=0;entryDy=0;" edge="1" parent="25" source="27" target="27">
                    <mxGeometry relative="1" as="geometry"/>
                </mxCell>
                <UserObject label="%name% Text" placeholders="1" name="Variable" id="29">
                    <mxCell style="text;html=1;strokeColor=none;fillColor=none;align=center;verticalAlign=middle;whiteSpace=wrap;overflow=hidden;" vertex="1" parent="23">
                        <mxGeometry y="60" width="210" height="40" as="geometry"/>
                    </mxCell>
                </UserObject>
            </root>
        </mxGraphModel>
    </diagram>
</mxfile>